<svg xmlns="http://www.w3.org/2000/svg" viewBox="0 0 840 600"><path fill="#244aa5" d="M0 0h840v600H0z"/><path fill="#d0a650" d="M424.5 190.1c3.6 4.1 6 8.2 6 13.2-3 1.5-7.1 2-9.5 4.7 14.7-2 17.6 15 34 8.5.6 2.4 3 4.4 5.9 3.5l1.7-4.7c6.5-1.7 4.7 8.8 11.8 6.8 3.5 2.9 1.1 7.9 3.5 11.4 0 4.1 1.7 7.6 3.5 11.1 1.7-2 3-5 7-4 3 3.1 5.3 6 5.9 9.6-1.2 6.7-3 12.6 4 16.1v2c4.8 2.1 15.3-2 15.3 6.2-.6 3 3 .3 4.1 2 3-1.1 7-.5 10.6-.5 2.9 6.1-3.6 10.5-5.3 16 3 3 1.7 8.3 1.2 11.8l-1.8.9c4.7.9 10.5-.6 14.6 2l7.7 3c3.5-2 7.6-2.4 12.3-2 3.5 2.6-1.2 7 1.7 9 4.1 0 7.7.6 8.2 4.1l.6 1.2c3-5.3 11.2-1.8 14.7-5.6 5.8 0 7 6.4 10 10 1.1 9-10 13.2-6.5 22.2-2.4 4.4-7 8-10.6 12 1.2.6.6 2 .6 3-3.5 2-.6 8.2-5.3 8.8-.5 3.8-7.6 2.3-5.2 6.4 4.7 6.2-2.4 10-2.4 15.5-3 3.3-8.8-3-8.8 3.3-3.5.9-7-3.3-9.3.3-1.2 4 2.3 5.5 1.7 9.6 5.9-.6 7.6 5.3 10 8.8l5.8 5.9c-5.8 4.6-13.4-.6-20.5 2-1.7-.9 0-3.2-1.7-4-1.8-2.1-5.3-2.1-8.2-2.7.5 2.6-4.7 3.5-2.4 6.7 0 .9 1.2 3.5-1.1 3.5-4.7 1.5-4.1-4-8.3-2-5.2 2-1.1 10-8.7 9 1.1 7.1-11.7 11.8-3 18 1.2 1.1.6 3.4.6 5.2-5.3 4.7-14.6 3-20.5 1.2-4.7-1.2-1.7-7-3.5-10.3-1.8-3-7-5-7-9-3.5-1.5-6.5-2.4-8.8-5.3-8.2 7.9-18.2 15.5-30 15.8-5.2 2.6-8.1 13.2-16.3 8.8-3.2 5.3-13 0-13.5 7.6-3.8 1.5-2 6.5-4.4 8.8-.9 5.8 0 10.8 5 14.3 2 4.4-4.4 4.4-1.8 8.5.6 1.5 0 3.6-.8 4.2-1.8.8-2.4 1.7-1.8 3.5-1.5 0-2 .9-3.2 2-1.5 3-6.2 4.4-9.4 6.4-3.2 1-5.6-1.4-7.6-3.5-.6 3.3-3.2 5-6.5 5-4.6 0-3.8-4-7.3-5.8 1.5-5.3-3.2-7.6-1.7-12.3 3.8-3 10.2-5 8.4-11.2-4-5-2.6-12.3-6.7-18.2-2.6-2.3-7-5.8-5.6-11.4 3.9-4.4 0-9.6-2-14.3-.9-3.8-3.2-7.3-3.2-11.7-6.5-3.8-6.8-13.8-15.9-14.7-6.4 0-7.6-8.2-14-7.6-.6-1.2-2-2-3.2-3.2-4.7 3.2-10.6-.9-16.4.5-3.8-6.4 3.2-15.2-7-19v-4c1.1.5 1.7-.7 2-1.3.6-4.4-7.3-5-4.1-10-1.8-1.4-3.8-2-2.6-4.9-4.5-9-17.6-8.2-20.6-17.3 2.4-2 2.4-4.1 3.3-5.9-2-3.5-2.7-7.3-2-11 2-.7 3.1-3.3 4.3-5.4-2.6-1.7-5.9-4.4-8.8-3.5-5.3-.9-9-5-13.8-7.3-1.1-1.2-.5-3.2-.5-4.7 6.4-2-1-11.1 7-10 2-2.6 6.4-3.5 9.7-5.5 3.2-.6 5.8.6 9 1.5 2.7 3.5 7.4 2 10 5 2.6-.7 5.9-2.1 9-.7 0-5 2.4-7.9 6-11.4.5-2 3.7-3.5 6.4-4.7 5 1.2 10.8 1.2 14.3-2.3 2.4 1.5 4.4-1.5 7-1.5a11 11 0 0 1 8.3 1.8c.3-5.9 10.5-.9 12.6-8 2.3-4.6-6.5-6.4-5.9-10.5-1.4-4.7 2-7 3.8-10.2 2-.9 4.4-2 7-1.5 6.8-2.3 1.5-16.1 12.4-11.1 0 1.4-.6 3.2.2 3.5 3.9 0 4.4-4.4 7-5.9 1.3-4-1.4-9 2.1-12.3 1.8-.3 3.3-.8 4.4-2.3 0-3.2-1.7-5-4.4-7-.8 1.4-3.2.3-4.7.8 0-3.5-2-5.8-2.6-9-1.8-1-2.6-2.4-2-4.4 2.6-2.7 0-9.1 6.1-7.7 2.4-2 6.5-.5 8.8-4 6.1-3.6 14.4-3.6 19-10 2.1.3 4.4-1.8 6.5 0 .6 3.8 6.1 2.3 6.1 5.8"/><path fill="#fff" d="m469.9 110.7-8.1-24.9-8 24.9h-26.2l21.2 15.4-8.1 24.9 21.1-15.4L483 151l-8.1-24.9 21.2-15.4zM552.3 125.2l-8.1-24.8-8 24.8H510l21.2 15.4-8.1 24.9 21.1-15.4 21.2 15.4-8.1-24.9 21.2-15.4zM630.9 153.8l-8-24.8-8.1 24.8h-26.2l21.2 15.4-8.1 24.9 21.2-15.4 21.1 15.4-8.1-24.9 21.2-15.4zM386.2 110.7l-8-24.9-8.1 24.9h-26.2l21.2 15.4L357 151l21.2-15.4 21.1 15.4-8.1-24.9 21.2-15.4zM303.8 125.2l-8-24.8-8.1 24.8h-26.2l21.2 15.4-8.1 24.9 21.2-15.4 21.1 15.4-8.1-24.9 21.2-15.4zM225.2 153.8l-8.1-24.8-8 24.8h-26.2l21.2 15.4-8.1 24.9 21.1-15.4 21.2 15.4-8.1-24.9 21.2-15.4z"/></svg>